<svg xmlns="http://www.w3.org/2000/svg" width="63" height="63" viewBox="0 0 63 63">
  <g id="Bottom_chatbot" data-name="Bottom chatbot" transform="translate(-601 -928)">
    <path id="bottomchatbotbg" d="M31.5,0H63V31.5A31.5,31.5,0,1,1,31.5,0Z" transform="translate(601 928)" fill="#f40000"/>
    <g id="bottomchatbot" transform="translate(613.162 905.107)">
      <g id="Group_17128" data-name="Group 17128" transform="translate(4.15 37.5)">
        <path id="Path_11989" data-name="Path 11989" d="M74.688,37.5v7.672q-2.867-.019-5.734.039A7.068,7.068,0,0,0,63.1,50.751a6.989,6.989,0,0,0,4.456,7.865,10.465,10.465,0,0,0,1.085.31q3.019.164,6.044.116V62.53q-4.223.019-8.447-.039a7.555,7.555,0,0,1-5.5-3.448,8.176,8.176,0,0,1-1.2-3.41q-.077-2.247,0-4.495a16.367,16.367,0,0,1,.891-3.8,17.589,17.589,0,0,1,2.247-4.107A15.446,15.446,0,0,1,74.688,37.5Z" transform="translate(-59.5 -37.5)" fill="#eff4f9" fill-rule="evenodd" opacity="0.997"/>
      </g>
      <g id="Group_17129" data-name="Group 17129" transform="translate(19.338 37.5)">
        <path id="Path_11990" data-name="Path 11990" d="M255.5,37.5a15.446,15.446,0,0,1,12.011,5.734,17.587,17.587,0,0,1,2.247,4.107,15.2,15.2,0,0,1,.891,3.8q.077,2.286,0,4.572a7.411,7.411,0,0,1-1.2,3.332,7.555,7.555,0,0,1-5.5,3.448q-4.223.058-8.447.039V59.043q2.713.019,5.424-.039a6.948,6.948,0,0,0,2.79-12.941,7.34,7.34,0,0,0-2.635-.852q-2.79-.058-5.579-.039Z" transform="translate(-255.5 -37.5)" fill="#d6e2ef" fill-rule="evenodd"/>
      </g>
      <g id="Group_17130" data-name="Group 17130" transform="translate(4.911 39.433)">
        <path id="Path_11991" data-name="Path 11991" d="M71.741,66.245a17.589,17.589,0,0,0-2.247,4.107h-.155q-.056-3.649.116-7.284a1.24,1.24,0,0,1,1.434-.581,1.089,1.089,0,0,1,.814.814Q71.76,64.772,71.741,66.245Z" transform="translate(-69.325 -62.443)" fill="#fff" fill-rule="evenodd" opacity="0.965"/>
      </g>
      <g id="Group_17131" data-name="Group 17131" transform="translate(31.344 39.43)">
        <path id="Path_11992" data-name="Path 11992" d="M412.844,70.322h-.155a17.587,17.587,0,0,0-2.247-4.107q-.019-1.473.039-2.945a1.173,1.173,0,0,1,1.511-.814,1.052,1.052,0,0,1,.736.581Q412.9,66.672,412.844,70.322Z" transform="translate(-410.437 -62.411)" fill="#fff" fill-rule="evenodd" opacity="0.964"/>
      </g>
      <g id="Group_17132" data-name="Group 17132" transform="translate(7.68 45.167)">
        <path id="Path_11993" data-name="Path 11993" d="M116.722,136.442v2.325q-2.829-.019-5.657.039a4.674,4.674,0,0,0-3.6,5.618,4.8,4.8,0,0,0,3.836,3.526q2.712.058,5.424.039v2.325q-3.025.048-6.044-.116a10.461,10.461,0,0,1-1.085-.31,6.989,6.989,0,0,1-4.456-7.865,7.068,7.068,0,0,1,5.851-5.541Q113.855,136.423,116.722,136.442Z" transform="translate(-105.065 -136.437)" fill="#d6e2ef" fill-rule="evenodd"/>
      </g>
      <g id="Group_17133" data-name="Group 17133" transform="translate(19.338 45.167)">
        <path id="Path_11994" data-name="Path 11994" d="M255.5,136.442q2.79-.019,5.579.039a7.34,7.34,0,0,1,2.635.852,6.948,6.948,0,0,1-2.79,12.941q-2.712.058-5.424.039v-2.325q2.674.019,5.347-.039a4.736,4.736,0,0,0,3.836-3.216,4.656,4.656,0,0,0-2.751-5.7q-.421-.134-.852-.232-2.79-.058-5.579-.039Z" transform="translate(-255.5 -136.437)" fill="#9fb5da" fill-rule="evenodd"/>
      </g>
      <g id="Group_17134" data-name="Group 17134" transform="translate(-0.5 47.337)">
        <path id="Path_11995" data-name="Path 11995" d="M4.924,164.442h.155a16.367,16.367,0,0,0-.891,3.8q-.077,2.247,0,4.495a8.175,8.175,0,0,0,1.2,3.41q-1.589.019-3.177-.039A3.661,3.661,0,0,1-.5,173.431v-6.277a3.661,3.661,0,0,1,2.712-2.673Q3.568,164.423,4.924,164.442Z" transform="translate(0.5 -164.437)" fill="#fff" fill-rule="evenodd" opacity="0.993"/>
      </g>
      <g id="Group_17135" data-name="Group 17135" transform="translate(33.286 47.337)">
        <path id="Path_11996" data-name="Path 11996" d="M435.81,164.442h.155q1.357-.019,2.712.039a3.661,3.661,0,0,1,2.712,2.673v5.889a3.752,3.752,0,0,1-1.55,2.518,5.519,5.519,0,0,0-.775.426,3.294,3.294,0,0,0-.388.116q-1.588.058-3.177.039a7.411,7.411,0,0,0,1.2-3.332q.077-2.286,0-4.572A15.2,15.2,0,0,0,435.81,164.442Z" transform="translate(-435.5 -164.437)" fill="#fff" fill-rule="evenodd" opacity="0.998"/>
      </g>
      <g id="Group_17136" data-name="Group 17136" transform="translate(10.012 47.492)">
        <path id="Path_11997" data-name="Path 11997" d="M144.482,166.442v9.222q-2.713.019-5.424-.039a4.8,4.8,0,0,1-3.836-3.526,4.674,4.674,0,0,1,3.6-5.618Q141.653,166.423,144.482,166.442Z" transform="translate(-135.157 -166.437)" fill="#f40000" fill-rule="evenodd"/>
      </g>
      <g id="Group_17137" data-name="Group 17137" transform="translate(19.338 47.492)">
        <path id="Path_11998" data-name="Path 11998" d="M255.5,166.442q2.79-.019,5.579.039.431.1.852.232a4.656,4.656,0,0,1,2.751,5.7,4.736,4.736,0,0,1-3.836,3.216q-2.673.058-5.347.039Z" transform="translate(-255.5 -166.437)" fill="#f40000" fill-rule="evenodd"/>
      </g>
      <g id="Group_17138" data-name="Group 17138" transform="translate(13.681 50.492)">
        <path id="Path_11999" data-name="Path 11999" d="M183.275,205.187a1.246,1.246,0,0,1,1.511.852,4.715,4.715,0,0,1-.077,1.627,1.147,1.147,0,0,1-2.015.155,1.781,1.781,0,0,1-.155-.387,7.008,7.008,0,0,1,0-1.472A1.54,1.54,0,0,1,183.275,205.187Z" transform="translate(-182.5 -205.161)" fill="#fff" fill-rule="evenodd"/>
      </g>
      <g id="Group_17139" data-name="Group 17139" transform="translate(22.67 50.492)">
        <path id="Path_12000" data-name="Path 12000" d="M299.275,205.184a1.293,1.293,0,0,1,1.511.775,5.147,5.147,0,0,1-.077,1.7,1.147,1.147,0,0,1-2.015.155,1.781,1.781,0,0,1-.155-.387,6.292,6.292,0,0,1,0-1.395A1.349,1.349,0,0,1,299.275,205.184Z" transform="translate(-298.5 -205.157)" fill="#fff" fill-rule="evenodd"/>
      </g>
      <g id="Group_17140" data-name="Group 17140" transform="translate(28.017 55.943)">
        <path id="Path_12001" data-name="Path 12001" d="M378.659,275.5v7.594a7.345,7.345,0,0,1-4.495,5.541,9.043,9.043,0,0,1-1.782.465q-2.441.058-4.882.039a3.908,3.908,0,0,0,.077-2.4q2.286.019,4.572-.039a4.913,4.913,0,0,0,4.146-4.688q.058-1.782.039-3.565a5.527,5.527,0,0,1,.775-.426A3.751,3.751,0,0,0,378.659,275.5Z" transform="translate(-367.5 -275.5)" fill="#fff" fill-rule="evenodd" opacity="0.982"/>
      </g>
      <g id="Group_17141" data-name="Group 17141" transform="translate(19.923 65.395)">
        <path id="Path_12002" data-name="Path 12002" d="M271.221,399.261a3.908,3.908,0,0,1-.077,2.4,2.74,2.74,0,0,1-1.86,1.589,23.136,23.136,0,0,1-3.642.077q-3.218-.758-2.441-3.991a2.992,2.992,0,0,1,2.131-1.821,28.437,28.437,0,0,1,4.107.077A2.73,2.73,0,0,1,271.221,399.261Z" transform="translate(-263.05 -397.477)" fill="#fff" fill-rule="evenodd" opacity="0.984"/>
      </g>
    </g>
  </g>
</svg>
